<svg xmlns="http://www.w3.org/2000/svg" xmlns:xlink="http://www.w3.org/1999/xlink" viewBox="0 0 428.6 242.87"><defs><style>.cls-1{fill:#001641;}.cls-2{fill:url(#linear-gradient);}</style><linearGradient id="linear-gradient" x1="171.26" y1="108.1" x2="257.34" y2="22.02" gradientUnits="userSpaceOnUse"><stop offset="0" stop-color="#603f99"/><stop offset="0.5" stop-color="#15bef0"/><stop offset="1" stop-color="#a2d8cb"/></linearGradient></defs><title>Asset 10</title><g id="Layer_2" data-name="Layer 2"><g id="Layer_1-2" data-name="Layer 1"><path class="cls-1" d="M41.57,202.43a13.54,13.54,0,0,0-3.17-5.07,11.49,11.49,0,0,0-4.91-2.72,27.69,27.69,0,0,0-7.34-.83q-7.24,0-11.26,1.93t-4,5.55a5.77,5.77,0,0,0,2.6,5.14q2.61,1.74,9.11,2.72l11.19,1.67q9.45,1.44,13.87,5.33t4.42,10.69a13.28,13.28,0,0,1-6.54,11.83q-6.54,4.2-18.33,4.2-12.85,0-19.46-4.46T0,224.57H9.68a11.19,11.19,0,0,0,5.17,8.13q4.2,2.53,12.36,2.53,7.34,0,11.23-2.19a6.82,6.82,0,0,0,3.89-6.2,6,6,0,0,0-2.68-5.21q-2.68-1.89-8.36-2.72l-9.67-1.44a47.13,47.13,0,0,1-11.87-3.1,13.92,13.92,0,0,1-6.35-5.1,14.34,14.34,0,0,1-2-7.75q0-7.26,6.53-11.3t18.34-4.05a40.05,40.05,0,0,1,12.17,1.59,18,18,0,0,1,7.89,4.84,19.52,19.52,0,0,1,4.35,8.47Z"/><path class="cls-1" d="M105.07,241.51,83.38,213.24,72.64,221.7v19.81H63v-54h9.6V212.1l29.63-24.57h11.87L90.26,207.64l26.15,33.87Z"/><path class="cls-1" d="M169.78,241.51,163.58,228h-28.5l-6.27,13.53H118.75l25.48-54h10.43l25.47,54Zm-20.49-44.83-10.88,23.43H160Z"/><path class="cls-1" d="M188.3,241.51v-54h25.85q10.8,0,16.29,4.35t5.48,12.89q0,8.78-5.6,13.08t-17.08,4.31h-15.5v19.35Zm25-27.22q6.57,0,9.75-2.34c2.11-1.56,3.17-4,3.17-7.33s-1-5.57-3.1-7-5.29-2.19-9.67-2.19H197.74v18.89Z"/><path class="cls-1" d="M245.82,241.51v-54h9.6v45.89h34.24l-1.36,8.09Z"/><path class="cls-1" d="M336.23,187.53h9.6v31.83q0,11.79-6.39,17.65t-19.24,5.86q-12.85,0-19.24-5.86t-6.38-17.65V187.53h9.6v32.28q0,7.71,3.89,11.38t12.13,3.67q8.24,0,12.14-3.67t3.89-11.38Z"/><path class="cls-1" d="M359.28,241.51v-54h9.6v54Z"/><path class="cls-1" d="M382.94,241.51v-54h44v8.09h-34.4v14.06h32.73v8.09H392.54v15.65H428.6l-1.36,8.09Z"/><path class="cls-2" d="M265.06,50.76V61.05h-5.24A57.58,57.58,0,0,0,227.1,71.32c-1.59-1.94-3.28-3.82-5.07-5.61-.73-.73-1.47-1.45-2.22-2.14a68.16,68.16,0,0,1,34.75-12.81h0a40.26,40.26,0,1,0-80.52,0h0a68.37,68.37,0,0,1,63,68.22h0a22.77,22.77,0,0,1-22.75,22.75,22.5,22.5,0,0,1-7-1.1A22.79,22.79,0,0,1,191.54,119h0A68.43,68.43,0,0,1,202.83,81.3a51.79,51.79,0,0,1,7.3,8.21A57.46,57.46,0,0,0,202.05,119h0a12.25,12.25,0,0,0,24.5,0h0a58,58,0,0,0-57.78-57.92h-5.23V50.76a50.76,50.76,0,1,1,101.52,0Z"/><path class="cls-1" d="M256.63,4.49V.55h-1.87V0h4.35V.55h-1.86V4.49Z"/><path class="cls-1" d="M264.46,4.49V.89l-1.76,3.6h-.53L260.41.93V4.49h-.6V0h.77l1.87,3.83L264.31,0h.75V4.49Z"/></g></g></svg>