<svg xmlns="http://www.w3.org/2000/svg" xmlns:xlink="http://www.w3.org/1999/xlink" viewBox="0 0 575.5 141.73"><defs><style>.cls-1{fill:#001641;}.cls-2{fill:url(#linear-gradient);}</style><linearGradient id="linear-gradient" x1="7.72" y1="108.1" x2="93.81" y2="22.02" gradientUnits="userSpaceOnUse"><stop offset="0" stop-color="#603f99"/><stop offset="0.5" stop-color="#15bef0"/><stop offset="1" stop-color="#a2d8cb"/></linearGradient></defs><title>Asset 9</title><g id="Layer_2" data-name="Layer 2"><g id="Layer_1-2" data-name="Layer 1"><path class="cls-1" d="M188.47,58.77a13.58,13.58,0,0,0-3.17-5.06A11.36,11.36,0,0,0,180.38,51a27.16,27.16,0,0,0-7.33-.84q-7.26,0-11.26,1.93t-4,5.56a5.77,5.77,0,0,0,2.61,5.14c1.74,1.16,4.77,2.07,9.11,2.72l11.19,1.66q9.45,1.44,13.87,5.33T199,83.19A13.29,13.29,0,0,1,192.44,95q-6.54,4.19-18.33,4.19-12.86,0-19.46-4.46T146.9,80.92h9.67a11.2,11.2,0,0,0,5.18,8.13q4.2,2.52,12.36,2.53,7.33,0,11.23-2.19a6.83,6.83,0,0,0,3.89-6.2A6.06,6.06,0,0,0,186.55,78c-1.79-1.26-4.58-2.16-8.36-2.72l-9.67-1.44a46.75,46.75,0,0,1-11.87-3.09,13.93,13.93,0,0,1-6.35-5.11,14.32,14.32,0,0,1-2-7.75q0-7.24,6.54-11.3t18.33-4a40,40,0,0,1,12.17,1.59,18,18,0,0,1,7.9,4.83,19.62,19.62,0,0,1,4.35,8.47Z"/><path class="cls-1" d="M252,97.85l-21.7-28.27-10.73,8.47v19.8h-9.6v-54h9.6V68.45l29.63-24.57H261L237.15,64l26.16,33.86Z"/><path class="cls-1" d="M316.67,97.85l-6.19-13.53H282L275.7,97.85H265.65l25.47-54h10.44l25.47,54ZM296.19,53,285.3,76.46h21.62Z"/><path class="cls-1" d="M335.19,97.85v-54h25.86q10.8,0,16.29,4.35t5.48,12.88q0,8.77-5.6,13.08T360.14,78.5h-15.5V97.85Zm25-27.21q6.59,0,9.75-2.34c2.12-1.57,3.18-4,3.18-7.34s-1-5.56-3.1-7-5.29-2.19-9.67-2.19H344.64v18.9Z"/><path class="cls-1" d="M392.72,97.85v-54h9.6V89.76h34.24l-1.36,8.09Z"/><path class="cls-1" d="M483.13,43.88h9.6V75.7q0,11.8-6.39,17.65T467.1,99.21q-12.86,0-19.24-5.86T441.47,75.7V43.88h9.6V76.16q0,7.71,3.9,11.37T467.1,91.2q8.23,0,12.13-3.67t3.9-11.37Z"/><path class="cls-1" d="M506.18,97.85v-54h9.6v54Z"/><path class="cls-1" d="M529.84,97.85v-54h44V52H539.44V66h32.73v8.09H539.44V89.76H575.5l-1.36,8.09Z"/><path class="cls-2" d="M101.53,50.76V61.05H96.29A57.56,57.56,0,0,0,63.57,71.32C62,69.38,60.29,67.5,58.5,65.71c-.73-.73-1.47-1.45-2.23-2.14A68.15,68.15,0,0,1,91,50.76h0a40.27,40.27,0,0,0-80.53,0h0A68.51,68.51,0,0,1,68.16,92.38,68,68,0,0,1,73.52,119h0a22.78,22.78,0,0,1-22.76,22.75,22.54,22.54,0,0,1-7-1.1A22.8,22.8,0,0,1,28,119h0A68.19,68.19,0,0,1,39.3,81.3a51.73,51.73,0,0,1,7.29,8.21A57.55,57.55,0,0,0,38.51,119h0A12.26,12.26,0,0,0,63,119h0A58,58,0,0,0,5.24,61.06H0V50.76A50.72,50.72,0,0,1,50.76,0a51.06,51.06,0,0,1,7,.48,50.72,50.72,0,0,1,43.76,50.28Z"/><path class="cls-1" d="M93.09,4.49V.55H91.23V0h4.35V.55H93.72V4.49Z"/><path class="cls-1" d="M100.92,4.49V.89l-1.76,3.6h-.53L96.87.93V4.49h-.6V0h.78l1.87,3.83L100.78,0h.75V4.49Z"/></g></g></svg>